# xmcd
#
# Track frame offsets: 
#        150
#        11408
#        18524
#        29704
#        43743
#        58943
#        78863
#        96935
#        104722
#        109832
#        127385
#        137390
#        150867
#        164035
#        183271
#
# Disc length: 2614 seconds
#
# Revision: 0
# Processed by: cddbd v1.5.2PL0 Copyright (c) Steve Scherf et al.
# Submitted via: ExactAudioCopy v0.99pb4
#
DISCID=cb0a340f
DTITLE=Various Artist - 15 хитов про котов
DYEAR=2001
DGENRE=Бардовская песня
TTITLE0=Лариса Брохман - Я пушистый беленький котёнок
TTITLE1=Е.Вдовин and Вад. и Вал.Мищуки and А.Колмыков and Н.Дудкина - Тучи р
TTITLE1=вут луну
TTITLE2=А.Иващенко - Как быстро привыкает кот к уюту
TTITLE3=А.Левин - Толстый Василий
TTITLE4=Г.Гладков - Мурка
TTITLE5=А.Иващенко - Колыбельная для чёрного котёнка
TTITLE6=Н.Дудкина - Анданте
TTITLE7=В.Щукин - Кисуня и крысуня
TTITLE8=А.Мирзаян - Кошки
TTITLE9=Г.Гладков - Котёнок Кыш
TTITLE10=В.Щукин - Котёнок
TTITLE11=Светлана и Ольга Волошины - Кисанька
TTITLE12=Г.Хомчик - Мартовский кот
TTITLE13=Т.Шаов - Кошачий блюз
TTITLE14=Н.Дудкина - Чёрный кот
EXTD=
EXTT0=
EXTT1=
EXTT2=
EXTT3=
EXTT4=
EXTT5=
EXTT6=
EXTT7=
EXTT8=
EXTT9=
EXTT10=
EXTT11=
EXTT12=
EXTT13=
EXTT14=
PLAYORDER=
